<svg id="レイヤー_1" data-name="レイヤー 1" xmlns="http://www.w3.org/2000/svg" viewBox="0 0 45.17 41.36"><defs><style>.cls-1{fill:#fff;}</style></defs><rect class="cls-1" x="8.16" y="13.04" width="22.64" height="8.4" transform="translate(-6.45 15.15) rotate(-36.9)"/><polygon class="cls-1" points="33.68 6.59 31.06 13.81 26.01 7.09 33.68 6.59"/><rect class="cls-1" x="29.26" y="5.08" width="7.45" height="4.06" transform="translate(2.34 21.23) rotate(-36.9)"/><ellipse class="cls-1" cx="37.35" cy="3.82" rx="5.87" ry="1.83" transform="translate(5.19 23.19) rotate(-36.9)"/><polygon class="cls-1" points="7.8 26.02 7.91 20.69 12.95 27.41 7.8 26.02"/><rect class="cls-1" x="8.81" y="21.43" width="1.35" height="6.65" transform="translate(-12.96 10.65) rotate(-36.9)"/><rect class="cls-1" x="7.67" y="21.39" width="1.42" height="8.4" transform="translate(-13.69 10.15) rotate(-36.9)"/><path class="cls-1" d="M7.53,41.17H4v-.38a5.46,5.46,0,0,0,.58-.1c.22,0,.33-.11.33-.19s0,0,0-.09l0-.13-.55-1.43H2.13c0,.13-.11.29-.17.47s-.12.33-.16.47a2.48,2.48,0,0,0-.1.4c0,.08,0,.14,0,.17s.08.19.22.27a2.59,2.59,0,0,0,.73.16v.38H0v-.38l.34-.06a.7.7,0,0,0,.29-.11A1.11,1.11,0,0,0,1,40.33a1.88,1.88,0,0,0,.21-.4l1.05-2.75c.35-.92.74-1.93,1.17-3h.9c.59,1.57,1.06,2.81,1.39,3.72s.62,1.67.86,2.27a.94.94,0,0,0,.14.26,1,1,0,0,0,.26.23,1.17,1.17,0,0,0,.3.12l.3,0ZM4.16,38.36l-.93-2.5-.92,2.5Z"/><path class="cls-1" d="M9.66,39H6.92V38H9.66Z"/><path class="cls-1" d="M17.45,41.17H14v-.38l.33,0,.3-.06a.46.46,0,0,0,.23-.2.64.64,0,0,0,.06-.3V37.81H12.16v2.34a.54.54,0,0,0,.07.29.45.45,0,0,0,.22.21,1.51,1.51,0,0,0,.3.08l.33.06v.38H9.62v-.38l.33,0a1.52,1.52,0,0,0,.32-.06.38.38,0,0,0,.22-.19.62.62,0,0,0,.07-.31v-4.9A.62.62,0,0,0,10.5,35a.53.53,0,0,0-.23-.21,1.82,1.82,0,0,0-.35-.11,1.27,1.27,0,0,0-.3-.06v-.38h3.46v.38a1.56,1.56,0,0,0-.33.05,2.28,2.28,0,0,0-.3.07.36.36,0,0,0-.23.2.77.77,0,0,0-.06.3v2.07H14.9v-2a.62.62,0,0,0-.06-.29.48.48,0,0,0-.23-.21,2.33,2.33,0,0,0-.32-.11L14,34.62v-.38h3.47v.38a2.11,2.11,0,0,0-.33,0l-.32.08a.36.36,0,0,0-.23.2.73.73,0,0,0-.06.3v4.91a.65.65,0,0,0,.06.29.44.44,0,0,0,.23.21,1.74,1.74,0,0,0,.31.09l.34,0Z"/><path class="cls-1" d="M23.63,35a3.29,3.29,0,0,1,.75,1.13,3.82,3.82,0,0,1,.28,1.52,4.62,4.62,0,0,1-.23,1.44,3.57,3.57,0,0,1-.68,1.17,3.21,3.21,0,0,1-1.1.8,3.57,3.57,0,0,1-1.49.29,3.7,3.7,0,0,1-1.33-.25,3.49,3.49,0,0,1-1.1-.72A3.41,3.41,0,0,1,18,39.26a3.75,3.75,0,0,1-.28-1.48A4.18,4.18,0,0,1,18,36.24a3.69,3.69,0,0,1,.74-1.19,3.14,3.14,0,0,1,1.11-.74,3.43,3.43,0,0,1,1.36-.26,3.56,3.56,0,0,1,1.35.25A3.21,3.21,0,0,1,23.63,35Zm-1.16,5a4.13,4.13,0,0,0,.29-1,8.06,8.06,0,0,0,.09-1.27,7.5,7.5,0,0,0-.08-1.17,3.81,3.81,0,0,0-.27-1,1.88,1.88,0,0,0-.51-.71,1.21,1.21,0,0,0-.8-.27,1.35,1.35,0,0,0-1.25.84,5.41,5.41,0,0,0-.42,2.37A8.09,8.09,0,0,0,19.61,39a3.81,3.81,0,0,0,.29,1,1.84,1.84,0,0,0,.52.68,1.22,1.22,0,0,0,.77.24,1.26,1.26,0,0,0,.77-.24A1.76,1.76,0,0,0,22.47,40Z"/><path class="cls-1" d="M30.59,38a1.64,1.64,0,0,1,.47.54,1.53,1.53,0,0,1,.18.76,1.86,1.86,0,0,1-.2.89,1.5,1.5,0,0,1-.59.58,3,3,0,0,1-.94.31,6.59,6.59,0,0,1-1.25.1H24.93v-.38l.35,0a1.1,1.1,0,0,0,.3-.07.42.42,0,0,0,.22-.19.57.57,0,0,0,.07-.31V35.29a.85.85,0,0,0-.05-.3.49.49,0,0,0-.24-.2l-.33-.11-.32-.06v-.38h3.48a3.52,3.52,0,0,1,1.9.39,1.29,1.29,0,0,1,.58,1.15,1.38,1.38,0,0,1-.13.62,1.26,1.26,0,0,1-.37.46,2.46,2.46,0,0,1-.53.31,4.64,4.64,0,0,1-.66.22v.09a4.24,4.24,0,0,1,.73.17A2.57,2.57,0,0,1,30.59,38ZM29.14,35.9a1.29,1.29,0,0,0-.31-.9,1.19,1.19,0,0,0-.9-.32h-.46v2.57h.24a1.43,1.43,0,0,0,1.08-.37A1.4,1.4,0,0,0,29.14,35.9Zm.31,3.33a1.47,1.47,0,0,0-.4-1.11,1.54,1.54,0,0,0-1.14-.39h-.44v2.54a.52.52,0,0,0,.25.31,1.17,1.17,0,0,0,1.39-.27A1.61,1.61,0,0,0,29.45,39.23Z"/><path class="cls-1" d="M37.23,38a1.67,1.67,0,0,1,.48.54,1.53,1.53,0,0,1,.18.76,1.75,1.75,0,0,1-.21.89,1.43,1.43,0,0,1-.59.58,2.89,2.89,0,0,1-.94.31,6.52,6.52,0,0,1-1.25.1H31.57v-.38l.35,0a1.1,1.1,0,0,0,.3-.07.45.45,0,0,0,.23-.19.68.68,0,0,0,.06-.31V35.29a.85.85,0,0,0,0-.3.42.42,0,0,0-.24-.2,1.82,1.82,0,0,0-.33-.11l-.32-.06v-.38h3.49a3.48,3.48,0,0,1,1.89.39,1.29,1.29,0,0,1,.59,1.15,1.52,1.52,0,0,1-.13.62,1.4,1.4,0,0,1-.38.46,2.24,2.24,0,0,1-.53.31,3.93,3.93,0,0,1-.66.22v.09a4,4,0,0,1,.73.17A2.28,2.28,0,0,1,37.23,38ZM35.78,35.9a1.29,1.29,0,0,0-.3-.9,1.19,1.19,0,0,0-.9-.32h-.47v2.57h.24a1.26,1.26,0,0,0,1.43-1.37Zm.32,3.33a1.51,1.51,0,0,0-.4-1.11,1.59,1.59,0,0,0-1.15-.39h-.44v2.54a.54.54,0,0,0,.26.31,1,1,0,0,0,.51.12,1.12,1.12,0,0,0,.88-.39A1.66,1.66,0,0,0,36.1,39.23Z"/><path class="cls-1" d="M45.17,34.62a1.33,1.33,0,0,0-.3.06,1.23,1.23,0,0,0-.26.12,1.38,1.38,0,0,0-.34.3,4.33,4.33,0,0,0-.3.41c-.2.31-.4.65-.62,1s-.45.76-.7,1.2a2.59,2.59,0,0,0-.3.64,3.25,3.25,0,0,0-.06.76v1a.7.7,0,0,0,.06.3.49.49,0,0,0,.23.22l.33.09.37.07v.38H39.7v-.38l.36,0a2.14,2.14,0,0,0,.34-.07.41.41,0,0,0,.22-.21.74.74,0,0,0,.07-.31V38.93c0-.1,0-.2,0-.28a.56.56,0,0,0,0-.2,1.56,1.56,0,0,0-.11-.24l-.2-.37c-.23-.44-.46-.86-.67-1.25l-.62-1.11a3,3,0,0,0-.31-.44,2.44,2.44,0,0,0-.32-.26.82.82,0,0,0-.3-.11,1.24,1.24,0,0,0-.31-.05v-.38h3.67v.38a2.89,2.89,0,0,0-.68.07c-.11,0-.17.1-.17.17a.81.81,0,0,0,.06.22c.05.1.12.27.24.49s.25.51.45.88.43.8.71,1.3c.57-1,1-1.66,1.18-2a2.62,2.62,0,0,0,.32-.72.28.28,0,0,0-.19-.25,1.66,1.66,0,0,0-.61-.11v-.38h2.38Z"/></svg>