<svg id="レイヤー_1" data-name="レイヤー 1" xmlns="http://www.w3.org/2000/svg" viewBox="0 0 252 122"><defs><style>.cls-1{fill:#313334;}.cls-2{fill:#fff;}</style></defs><rect class="cls-1" width="252" height="122"/><rect class="cls-2" x="118.12" y="46.8" width="8.4" height="22.64" transform="translate(95.36 -74.6) rotate(53.1)"/><polygon class="cls-2" points="136.52 47.46 133.9 54.68 128.85 47.96 136.52 47.46"/><rect class="cls-2" x="133.79" y="44.26" width="4.06" height="7.45" transform="translate(92.66 -89.44) rotate(53.1)"/><ellipse class="cls-2" cx="140.2" cy="44.7" rx="5.87" ry="1.83" transform="translate(1.24 93.12) rotate(-36.9)"/><polygon class="cls-2" points="110.64 66.89 110.75 61.56 115.79 68.28 110.64 66.89"/><rect class="cls-2" x="108.99" y="64.95" width="6.65" height="1.35" transform="translate(97.37 -63.59) rotate(53.1)"/><rect class="cls-2" x="107.01" y="65.75" width="8.4" height="1.42" transform="translate(97.6 -62.37) rotate(53.1)"/><path class="cls-2" d="M98.07,82.85l1.2-.18h.24l1.32.18v.48H98.07Zm3.57-7.62h.72l2.76,8.1H104l-2.41-7.18h.27l-2.45,7.18h-.56Zm-1.4,4.92h3.24l.19.55h-3.62Zm2.36,2.7,1.51-.18h.24l1.49.18v.48H102.6Z"/><path class="cls-2" d="M106.45,79.94h2.75v.76h-2.75Z"/><path class="cls-2" d="M110.23,75.77v-.48h3.35v.48L112,76h-.24Zm1.79,6.9,1.56.18v.48h-3.35v-.48l1.55-.18ZM111.36,79c0-1.23,0-2.48,0-3.72h1.15c0,1.22,0,2.46,0,3.72v.36c0,1.48,0,2.72,0,4h-1.15c0-1.21,0-2.46,0-3.72Zm.54.48v-.55h5v.55Zm3.36-3.72v-.48h3.36v.48l-1.56.18h-.24Zm1.8,6.9,1.56.18v.48h-3.36v-.48l1.56-.18ZM116.4,79c0-1.23,0-2.48,0-3.72h1.15c0,1.22,0,2.46,0,3.72v.6c0,1.24,0,2.48,0,3.72h-1.15c0-1.21,0-2.46,0-4Z"/><path class="cls-2" d="M127.07,79.31c0,2.63-1.8,4.2-3.66,4.2s-3.67-1.46-3.67-4.2a3.89,3.89,0,0,1,3.67-4.2C125.26,75.11,127.07,76.58,127.07,79.31Zm-3.66,3.6c1.69,0,2.4-1.8,2.4-3.6s-.71-3.6-2.4-3.6-2.41,1.8-2.41,3.6S121.72,82.91,123.41,82.91Z"/><path class="cls-2" d="M128.19,75.77v-.48h1.68V76h-.12Zm1.68,6.9v.66h-1.68v-.48l1.56-.18ZM129.33,79c0-1.23,0-2.48,0-3.72h1.15c0,1.22,0,2.46,0,3.72v.42c0,1.42,0,2.66,0,3.9h-1.15c0-1.21,0-2.46,0-3.72Zm.54-.11h1.19c1.47,0,2.11-.46,2.11-1.57s-.64-1.48-1.87-1.48h-1.43v-.56h1.77c1.65,0,2.61.82,2.61,2,0,.94-.65,1.76-2.25,2v-.11c1.87.15,2.64,1,2.64,2s-.9,2.19-3.16,2.19h-1.61v-.55h1.32c1.56,0,2.31-.59,2.31-1.64s-.73-1.68-2.41-1.68h-1.22Z"/><path class="cls-2" d="M135.73,75.77v-.48h1.67V76h-.12Zm1.67,6.9v.66h-1.67v-.48l1.55-.18ZM136.86,79c0-1.23,0-2.48,0-3.72H138c0,1.22,0,2.46,0,3.72v.42c0,1.42,0,2.66,0,3.9h-1.15c0-1.21,0-2.46,0-3.72Zm.54-.11h1.19c1.48,0,2.11-.46,2.11-1.57s-.63-1.48-1.87-1.48H137.4v-.56h1.78c1.64,0,2.6.82,2.6,2,0,.94-.65,1.76-2.24,2v-.11c1.87.15,2.64,1,2.64,2s-.9,2.19-3.17,2.19H137.4v-.55h1.32c1.56,0,2.32-.59,2.32-1.64s-.73-1.68-2.41-1.68H137.4Z"/><path class="cls-2" d="M142.9,75.77v-.48h3.36v.48L144.7,76h-.24Zm3.3,4.86-2.63-5.34h1.25L147,80h-.42l2.25-4.73h.61l-2.58,5.34Zm.46,2,1.67.18v.48h-3.59v-.48l1.68-.18ZM146,79.73h1.08c0,1.37,0,2.53,0,3.6H146C146,82.29,146,81.11,146,79.73ZM148.77,76l-1.33-.18v-.48h2.75v.48L149,76Z"/></svg>